<svg xmlns="http://www.w3.org/2000/svg" viewBox="0 0 36 33" width="36" height="33" shape-rendering="crispEdges" role="img" aria-label="Asynk IO">
  <title>Asynk IO</title>
  <rect x="28" y="0" width="3" height="1" fill="var(--px-accent, currentColor)"/>
  <rect x="15" y="1" width="5" height="1" fill="currentColor"/>
  <rect x="27" y="1" width="5" height="1" fill="var(--px-accent, currentColor)"/>
  <rect x="14" y="2" width="7" height="1" fill="currentColor"/>
  <rect x="27" y="2" width="2" height="1" fill="var(--px-accent, currentColor)"/>
  <rect x="31" y="2" width="1" height="1" fill="var(--px-accent, currentColor)"/>
  <rect x="13" y="3" width="8" height="1" fill="currentColor"/>
  <rect x="27" y="3" width="2" height="1" fill="var(--px-accent, currentColor)"/>
  <rect x="31" y="3" width="1" height="1" fill="var(--px-accent, currentColor)"/>
  <rect x="13" y="4" width="9" height="1" fill="currentColor"/>
  <rect x="27" y="4" width="5" height="1" fill="var(--px-accent, currentColor)"/>
  <rect x="12" y="5" width="10" height="1" fill="currentColor"/>
  <rect x="27" y="5" width="4" height="1" fill="var(--px-accent, currentColor)"/>
  <rect x="12" y="6" width="11" height="1" fill="currentColor"/>
  <rect x="26" y="6" width="2" height="1" fill="var(--px-accent, currentColor)"/>
  <rect x="12" y="7" width="5" height="1" fill="currentColor"/>
  <rect x="18" y="7" width="5" height="1" fill="currentColor"/>
  <rect x="25" y="7" width="2" height="1" fill="var(--px-accent, currentColor)"/>
  <rect x="11" y="8" width="6" height="1" fill="currentColor"/>
  <rect x="18" y="8" width="4" height="1" fill="currentColor"/>
  <rect x="24" y="8" width="2" height="1" fill="var(--px-accent, currentColor)"/>
  <rect x="10" y="9" width="6" height="1" fill="currentColor"/>
  <rect x="19" y="9" width="2" height="1" fill="currentColor"/>
  <rect x="23" y="9" width="2" height="1" fill="var(--px-accent, currentColor)"/>
  <rect x="27" y="9" width="1" height="1" fill="var(--px-accent, currentColor)"/>
  <rect x="10" y="10" width="6" height="1" fill="currentColor"/>
  <rect x="19" y="10" width="1" height="1" fill="currentColor"/>
  <rect x="22" y="10" width="2" height="1" fill="var(--px-accent, currentColor)"/>
  <rect x="26" y="10" width="1" height="1" fill="var(--px-accent, currentColor)"/>
  <rect x="9" y="11" width="6" height="1" fill="currentColor"/>
  <rect x="21" y="11" width="2" height="1" fill="var(--px-accent, currentColor)"/>
  <rect x="25" y="11" width="1" height="1" fill="var(--px-accent, currentColor)"/>
  <rect x="9" y="12" width="6" height="1" fill="currentColor"/>
  <rect x="21" y="12" width="2" height="1" fill="var(--px-accent, currentColor)"/>
  <rect x="24" y="12" width="1" height="1" fill="var(--px-accent, currentColor)"/>
  <rect x="8" y="13" width="6" height="1" fill="currentColor"/>
  <rect x="20" y="13" width="2" height="1" fill="var(--px-accent, currentColor)"/>
  <rect x="23" y="13" width="1" height="1" fill="var(--px-accent, currentColor)"/>
  <rect x="26" y="13" width="1" height="1" fill="currentColor"/>
  <rect x="8" y="14" width="6" height="1" fill="currentColor"/>
  <rect x="20" y="14" width="3" height="1" fill="var(--px-accent, currentColor)"/>
  <rect x="26" y="14" width="2" height="1" fill="currentColor"/>
  <rect x="7" y="15" width="6" height="1" fill="currentColor"/>
  <rect x="16" y="15" width="2" height="1" fill="currentColor"/>
  <rect x="19" y="15" width="2" height="1" fill="currentColor"/>
  <rect x="25" y="15" width="3" height="1" fill="currentColor"/>
  <rect x="7" y="16" width="6" height="1" fill="currentColor"/>
  <rect x="15" y="16" width="5" height="1" fill="currentColor"/>
  <rect x="24" y="16" width="5" height="1" fill="currentColor"/>
  <rect x="6" y="17" width="6" height="1" fill="currentColor"/>
  <rect x="14" y="17" width="2" height="1" fill="currentColor"/>
  <rect x="18" y="17" width="2" height="1" fill="currentColor"/>
  <rect x="23" y="17" width="6" height="1" fill="currentColor"/>
  <rect x="6" y="18" width="6" height="1" fill="currentColor"/>
  <rect x="14" y="18" width="2" height="1" fill="currentColor"/>
  <rect x="18" y="18" width="2" height="1" fill="currentColor"/>
  <rect x="22" y="18" width="8" height="1" fill="currentColor"/>
  <rect x="5" y="19" width="6" height="1" fill="currentColor"/>
  <rect x="14" y="19" width="5" height="1" fill="currentColor"/>
  <rect x="21" y="19" width="3" height="1" fill="currentColor"/>
  <rect x="25" y="19" width="5" height="1" fill="currentColor"/>
  <rect x="5" y="20" width="6" height="1" fill="currentColor"/>
  <rect x="13" y="20" width="6" height="1" fill="currentColor"/>
  <rect x="21" y="20" width="2" height="1" fill="currentColor"/>
  <rect x="25" y="20" width="6" height="1" fill="currentColor"/>
  <rect x="4" y="21" width="6" height="1" fill="currentColor"/>
  <rect x="12" y="21" width="3" height="1" fill="currentColor"/>
  <rect x="20" y="21" width="2" height="1" fill="currentColor"/>
  <rect x="26" y="21" width="5" height="1" fill="currentColor"/>
  <rect x="4" y="22" width="5" height="1" fill="currentColor"/>
  <rect x="11" y="22" width="3" height="1" fill="currentColor"/>
  <rect x="18" y="22" width="3" height="1" fill="currentColor"/>
  <rect x="26" y="22" width="6" height="1" fill="currentColor"/>
  <rect x="3" y="23" width="5" height="1" fill="currentColor"/>
  <rect x="10" y="23" width="3" height="1" fill="currentColor"/>
  <rect x="15" y="23" width="5" height="1" fill="currentColor"/>
  <rect x="27" y="23" width="5" height="1" fill="currentColor"/>
  <rect x="3" y="24" width="4" height="1" fill="currentColor"/>
  <rect x="9" y="24" width="3" height="1" fill="currentColor"/>
  <rect x="14" y="24" width="6" height="1" fill="currentColor"/>
  <rect x="27" y="24" width="6" height="1" fill="currentColor"/>
  <rect x="2" y="25" width="4" height="1" fill="currentColor"/>
  <rect x="9" y="25" width="2" height="1" fill="currentColor"/>
  <rect x="13" y="25" width="6" height="1" fill="currentColor"/>
  <rect x="28" y="25" width="5" height="1" fill="currentColor"/>
  <rect x="2" y="26" width="1" height="1" fill="currentColor"/>
  <rect x="8" y="26" width="2" height="1" fill="currentColor"/>
  <rect x="12" y="26" width="6" height="1" fill="currentColor"/>
  <rect x="28" y="26" width="6" height="1" fill="currentColor"/>
  <rect x="1" y="27" width="1" height="1" fill="currentColor"/>
  <rect x="5" y="27" width="4" height="1" fill="currentColor"/>
  <rect x="16" y="27" width="1" height="1" fill="currentColor"/>
  <rect x="29" y="27" width="5" height="1" fill="currentColor"/>
  <rect x="1" y="28" width="1" height="1" fill="currentColor"/>
  <rect x="3" y="28" width="5" height="1" fill="currentColor"/>
  <rect x="29" y="28" width="6" height="1" fill="currentColor"/>
  <rect x="0" y="29" width="2" height="1" fill="currentColor"/>
  <rect x="3" y="29" width="2" height="1" fill="currentColor"/>
  <rect x="7" y="29" width="1" height="1" fill="currentColor"/>
  <rect x="30" y="29" width="5" height="1" fill="currentColor"/>
  <rect x="3" y="30" width="2" height="1" fill="currentColor"/>
  <rect x="7" y="30" width="1" height="1" fill="currentColor"/>
  <rect x="31" y="30" width="4" height="1" fill="currentColor"/>
  <rect x="3" y="31" width="5" height="1" fill="currentColor"/>
  <rect x="4" y="32" width="3" height="1" fill="currentColor"/>
</svg>
